<svg xmlns="http://www.w3.org/2000/svg" width="15.653" height="26.611" viewBox="0 0 15.653 26.611">
  <path id="XMLID_610_" d="M42.946,23.379a.649.649,0,0,1-.854,0L39.673,21.6l-2.419,1.779a.649.649,0,0,1-.854,0L33.981,21.6l-2.419,1.779a.649.649,0,0,1-.854,0L29,22.1V47.713l1.708-1.281a.649.649,0,0,1,.854,0l2.419,1.779L36.4,46.432a.712.712,0,0,1,.854,0l2.419,1.779,2.419-1.779a.649.649,0,0,1,.854,0l1.708,1.281V22.1l-1.708,1.281Zm-2.561,1.565h1.423a.712.712,0,0,1,0,1.423H40.384a.712.712,0,0,1,0-1.423Zm0,2.846h1.423a.712.712,0,0,1,0,1.423H40.384a.712.712,0,1,1,0-1.423Zm0,2.846h1.423a.712.712,0,0,1,0,1.423H40.384a.712.712,0,0,1,0-1.423Zm0,2.846h1.423a.712.712,0,0,1,0,1.423H40.384a.712.712,0,0,1,0-1.423Zm-2.846,4.269H31.846a.712.712,0,1,1,0-1.423h5.692a.712.712,0,1,1,0,1.423Zm0-2.846H31.846a.712.712,0,1,1,0-1.423h5.692a.712.712,0,0,1,0,1.423Zm0-2.846H31.846a.712.712,0,1,1,0-1.423h5.692a.712.712,0,0,1,0,1.423Zm0-2.846H31.846a.712.712,0,1,1,0-1.423h5.692a.712.712,0,1,1,0,1.423Zm0-2.846H31.846a.712.712,0,1,1,0-1.423h5.692a.712.712,0,0,1,0,1.423ZM41.1,39.886a2.1,2.1,0,0,1,2.135,2.135,2.073,2.073,0,0,1-1.423,1.992v.142a.672.672,0,0,1-.712.712h0a.672.672,0,0,1-.712-.712v-.142a2.073,2.073,0,0,1-1.423-1.992.712.712,0,0,1,1.423,0,.712.712,0,1,0,.712-.712,2.1,2.1,0,0,1-2.135-2.135,2.073,2.073,0,0,1,1.423-1.992V37.04a.672.672,0,0,1,.712-.712h0a.672.672,0,0,1,.712.712v.142a2.073,2.073,0,0,1,1.423,1.992.712.712,0,0,1-1.423,0,.713.713,0,0,0-.712-.712h0a.765.765,0,0,0-.712.712A.713.713,0,0,0,41.1,39.886Z" transform="translate(-29 -21.6)" fill="#5999f0"/>
</svg>
